<svg xmlns="http://www.w3.org/2000/svg" xmlns:xlink="http://www.w3.org/1999/xlink" width="500" zoomAndPan="magnify" viewBox="0 0 375 374.999991" height="500" preserveAspectRatio="xMidYMid meet" version="1.0"><defs><g/></defs><rect x="-37.5" width="450" fill="#ffffff" y="-37.499999" height="449.999989" fill-opacity="1"/><rect x="-37.5" width="450" fill="#ffffff" y="-37.499999" height="449.999989" fill-opacity="1"/><path fill="#00bf63" d="M 229.066406 108.5625 C 224.675781 103.414062 216.59375 103.839844 212.773438 109.421875 C 194.859375 135.59375 180.007812 149.238281 180.007812 149.238281 C 174.535156 141.234375 166.320312 134.65625 159.636719 130.152344 C 154.085938 126.417969 146.503906 128.964844 144.328125 135.289062 L 144.304688 135.363281 C 142.613281 140.28125 144.921875 145.652344 149.617188 147.890625 C 175.546875 160.269531 179.621094 211.964844 179.621094 211.964844 C 189.789062 170.175781 216.847656 135.8125 228.964844 122.007812 C 232.332031 118.171875 232.375 112.445312 229.066406 108.5625 Z M 186.023438 136.074219 C 192.371094 132.972656 195.007812 125.3125 191.90625 118.960938 C 188.804688 112.613281 181.144531 109.976562 174.796875 113.078125 C 168.445312 116.179688 165.8125 123.839844 168.910156 130.1875 C 172.011719 136.539062 179.671875 139.171875 186.023438 136.074219 " fill-opacity="1" fill-rule="nonzero"/><g fill="#545454" fill-opacity="1"><g transform="translate(115.57184, 244.846947)"><g><path d="M 10.3125 -18.125 C 13.101562 -18.125 15.421875 -17.253906 17.265625 -15.515625 C 19.117188 -13.773438 20.046875 -11.609375 20.046875 -9.015625 C 20.046875 -6.390625 19.117188 -4.195312 17.265625 -2.4375 C 15.410156 -0.675781 13.09375 0.203125 10.3125 0.203125 C 7.539062 0.203125 5.226562 -0.671875 3.375 -2.421875 C 1.53125 -4.179688 0.609375 -6.378906 0.609375 -9.015625 C 0.609375 -11.628906 1.53125 -13.800781 3.375 -15.53125 C 5.226562 -17.257812 7.539062 -18.125 10.3125 -18.125 Z M 10.375 -14.296875 C 8.96875 -14.296875 7.765625 -13.785156 6.765625 -12.765625 C 5.773438 -11.753906 5.28125 -10.492188 5.28125 -8.984375 C 5.28125 -7.472656 5.78125 -6.203125 6.78125 -5.171875 C 7.789062 -4.140625 8.988281 -3.625 10.375 -3.625 C 11.757812 -3.625 12.9375 -4.140625 13.90625 -5.171875 C 14.875 -6.203125 15.359375 -7.472656 15.359375 -8.984375 C 15.359375 -10.492188 14.875 -11.753906 13.90625 -12.765625 C 12.9375 -13.785156 11.757812 -14.296875 10.375 -14.296875 Z M 10.375 -14.296875 "/></g></g></g><g fill="#545454" fill-opacity="1"><g transform="translate(136.231434, 244.846947)"><g><path d="M 12.625 0 L 9.953125 -5.0625 L 6.359375 -5.0625 L 6.359375 0 L 1.796875 0 L 1.796875 -17.96875 L 9.828125 -17.96875 C 12.210938 -17.96875 14.050781 -17.421875 15.34375 -16.328125 C 16.644531 -15.242188 17.296875 -13.703125 17.296875 -11.703125 C 17.296875 -8.929688 16.210938 -7.007812 14.046875 -5.9375 L 17.8125 0 Z M 6.359375 -8.65625 L 9.828125 -8.65625 C 10.828125 -8.65625 11.597656 -8.898438 12.140625 -9.390625 C 12.691406 -9.890625 12.96875 -10.609375 12.96875 -11.546875 C 12.96875 -12.472656 12.691406 -13.175781 12.140625 -13.65625 C 11.597656 -14.132812 10.828125 -14.375 9.828125 -14.375 L 6.359375 -14.375 Z M 6.359375 -8.65625 "/></g></g></g><g fill="#545454" fill-opacity="1"><g transform="translate(154.812232, 244.846947)"><g><path d="M 6.359375 0 L 1.796875 0 L 1.796875 -17.96875 L 6.359375 -17.96875 Z M 6.359375 0 "/></g></g></g><g fill="#545454" fill-opacity="1"><g transform="translate(162.973414, 244.846947)"><g><path d="M 13.734375 -3.3125 L 5.875 -3.3125 L 4.5625 0 L -0.125 0 L 7.625 -17.96875 L 12.328125 -17.96875 L 19.890625 0 L 15.015625 0 Z M 12.40625 -6.78125 L 9.828125 -13.421875 L 7.21875 -6.78125 Z M 12.40625 -6.78125 "/></g></g></g><g fill="#545454" fill-opacity="1"><g transform="translate(182.734761, 244.846947)"><g><path d="M 10.21875 -18.125 C 11.550781 -18.125 12.863281 -17.847656 14.15625 -17.296875 C 15.445312 -16.753906 16.546875 -16.019531 17.453125 -15.09375 L 14.8125 -11.96875 C 14.226562 -12.6875 13.53125 -13.253906 12.71875 -13.671875 C 11.90625 -14.085938 11.097656 -14.296875 10.296875 -14.296875 C 8.867188 -14.296875 7.675781 -13.796875 6.71875 -12.796875 C 5.757812 -11.796875 5.28125 -10.5625 5.28125 -9.09375 C 5.28125 -7.582031 5.757812 -6.320312 6.71875 -5.3125 C 7.675781 -4.300781 8.867188 -3.796875 10.296875 -3.796875 C 11.046875 -3.796875 11.828125 -3.984375 12.640625 -4.359375 C 13.453125 -4.734375 14.175781 -5.25 14.8125 -5.90625 L 17.484375 -3.078125 C 16.503906 -2.085938 15.351562 -1.289062 14.03125 -0.6875 C 12.707031 -0.09375 11.382812 0.203125 10.0625 0.203125 C 7.351562 0.203125 5.097656 -0.675781 3.296875 -2.4375 C 1.503906 -4.195312 0.609375 -6.394531 0.609375 -9.03125 C 0.609375 -11.613281 1.523438 -13.773438 3.359375 -15.515625 C 5.191406 -17.253906 7.476562 -18.125 10.21875 -18.125 Z M 10.21875 -18.125 "/></g></g></g><g fill="#545454" fill-opacity="1"><g transform="translate(200.494309, 244.846947)"><g><path d="M 18.375 0 L 13.8125 0 L 13.8125 -6.984375 L 6.359375 -6.984375 L 6.359375 0 L 1.796875 0 L 1.796875 -17.96875 L 6.359375 -17.96875 L 6.359375 -10.578125 L 13.8125 -10.578125 L 13.8125 -17.96875 L 18.375 -17.96875 Z M 18.375 0 "/></g></g></g><g fill="#545454" fill-opacity="1"><g transform="translate(220.666282, 244.846947)"><g><path d="M 15.859375 -14.375 L 6.359375 -14.375 L 6.359375 -10.8125 L 14.9375 -10.8125 L 14.9375 -7.21875 L 6.359375 -7.21875 L 6.359375 -3.59375 L 16.140625 -3.59375 L 16.140625 0 L 1.796875 0 L 1.796875 -17.96875 L 15.859375 -17.96875 Z M 15.859375 -14.375 "/></g></g></g><g fill="#545454" fill-opacity="1"><g transform="translate(237.963876, 244.846947)"><g><path d="M 1.796875 -17.96875 L 9.53125 -17.96875 C 12.351562 -17.96875 14.648438 -17.132812 16.421875 -15.46875 C 18.191406 -13.8125 19.078125 -11.648438 19.078125 -8.984375 C 19.078125 -6.328125 18.175781 -4.164062 16.375 -2.5 C 14.582031 -0.832031 12.238281 0 9.34375 0 L 1.796875 0 Z M 6.359375 -14.328125 L 6.359375 -3.640625 L 9.625 -3.640625 C 11.03125 -3.640625 12.179688 -4.128906 13.078125 -5.109375 C 13.972656 -6.097656 14.421875 -7.378906 14.421875 -8.953125 C 14.421875 -10.535156 13.953125 -11.828125 13.015625 -12.828125 C 12.078125 -13.828125 10.878906 -14.328125 9.421875 -14.328125 Z M 6.359375 -14.328125 "/></g></g></g><g fill="#545454" fill-opacity="1"><g transform="translate(99.580524, 263.353723)"><g><path d="M 3.59375 -7.859375 C 4.601562 -7.859375 5.515625 -7.59375 6.328125 -7.0625 L 5.78125 -5.90625 C 4.976562 -6.382812 4.210938 -6.625 3.484375 -6.625 C 3.097656 -6.625 2.789062 -6.550781 2.5625 -6.40625 C 2.332031 -6.269531 2.21875 -6.070312 2.21875 -5.8125 C 2.21875 -5.550781 2.320312 -5.328125 2.53125 -5.140625 C 2.738281 -4.960938 3 -4.832031 3.3125 -4.75 C 3.625 -4.664062 3.960938 -4.554688 4.328125 -4.421875 C 4.691406 -4.296875 5.03125 -4.160156 5.34375 -4.015625 C 5.65625 -3.867188 5.910156 -3.640625 6.109375 -3.328125 C 6.316406 -3.015625 6.421875 -2.640625 6.421875 -2.203125 C 6.421875 -1.523438 6.144531 -0.976562 5.59375 -0.5625 C 5.050781 -0.15625 4.347656 0.046875 3.484375 0.046875 C 2.890625 0.046875 2.3125 -0.0625 1.75 -0.28125 C 1.195312 -0.507812 0.710938 -0.8125 0.296875 -1.1875 L 0.859375 -2.328125 C 1.253906 -1.960938 1.6875 -1.679688 2.15625 -1.484375 C 2.625 -1.285156 3.070312 -1.1875 3.5 -1.1875 C 3.957031 -1.1875 4.316406 -1.269531 4.578125 -1.4375 C 4.835938 -1.613281 4.96875 -1.847656 4.96875 -2.140625 C 4.96875 -2.410156 4.863281 -2.632812 4.65625 -2.8125 C 4.445312 -3 4.1875 -3.132812 3.875 -3.21875 C 3.5625 -3.300781 3.222656 -3.40625 2.859375 -3.53125 C 2.492188 -3.65625 2.15625 -3.785156 1.84375 -3.921875 C 1.53125 -4.054688 1.269531 -4.273438 1.0625 -4.578125 C 0.851562 -4.890625 0.75 -5.257812 0.75 -5.6875 C 0.75 -6.351562 1.007812 -6.878906 1.53125 -7.265625 C 2.050781 -7.660156 2.738281 -7.859375 3.59375 -7.859375 Z M 3.59375 -7.859375 "/></g></g></g><g fill="#545454" fill-opacity="1"><g transform="translate(106.519683, 263.353723)"><g><path d="M 6.359375 -6.625 L 3.875 -6.625 L 3.875 0 L 2.5625 0 L 2.5625 -6.625 L 0.09375 -6.625 L 0.09375 -7.8125 L 6.359375 -7.8125 Z M 6.359375 -6.625 "/></g></g></g><g fill="#545454" fill-opacity="1"><g transform="translate(112.979128, 263.353723)"><g><path d="M 7.671875 -7.8125 L 7.671875 -3.234375 C 7.671875 -2.210938 7.367188 -1.40625 6.765625 -0.8125 C 6.160156 -0.226562 5.328125 0.0625 4.265625 0.0625 C 3.210938 0.0625 2.382812 -0.226562 1.78125 -0.8125 C 1.175781 -1.40625 0.875 -2.210938 0.875 -3.234375 L 0.875 -7.8125 L 2.1875 -7.8125 L 2.1875 -3.234375 C 2.1875 -2.578125 2.375 -2.0625 2.75 -1.6875 C 3.125 -1.3125 3.632812 -1.125 4.28125 -1.125 C 4.925781 -1.125 5.429688 -1.3125 5.796875 -1.6875 C 6.160156 -2.0625 6.34375 -2.578125 6.34375 -3.234375 L 6.34375 -7.8125 Z M 7.671875 -7.8125 "/></g></g></g><g fill="#545454" fill-opacity="1"><g transform="translate(121.50247, 263.353723)"><g><path d="M 1.03125 -7.8125 L 4.234375 -7.8125 C 5.398438 -7.8125 6.363281 -7.441406 7.125 -6.703125 C 7.882812 -5.960938 8.265625 -5.023438 8.265625 -3.890625 C 8.265625 -2.765625 7.878906 -1.832031 7.109375 -1.09375 C 6.347656 -0.363281 5.375 0 4.1875 0 L 1.03125 0 Z M 2.34375 -6.625 L 2.34375 -1.1875 L 4.265625 -1.1875 C 5.023438 -1.1875 5.660156 -1.441406 6.171875 -1.953125 C 6.679688 -2.460938 6.9375 -3.109375 6.9375 -3.890625 C 6.9375 -4.679688 6.671875 -5.332031 6.140625 -5.84375 C 5.617188 -6.363281 4.972656 -6.625 4.203125 -6.625 Z M 2.34375 -6.625 "/></g></g></g><g fill="#545454" fill-opacity="1"><g transform="translate(130.148527, 263.353723)"><g><path d="M 4.234375 -2.59375 L 4.234375 0 L 2.921875 0 L 2.921875 -2.5625 L 0.015625 -7.8125 L 1.34375 -7.8125 L 3.5625 -4 L 5.75 -7.8125 L 7.09375 -7.8125 Z M 4.234375 -2.59375 "/></g></g></g><g fill="#545454" fill-opacity="1"><g transform="translate(137.255021, 263.353723)"><g/></g></g><g fill="#545454" fill-opacity="1"><g transform="translate(140.133324, 263.353723)"><g><path d="M 6.0625 -1.765625 L 2.125 -1.765625 L 1.390625 0 L 0.015625 0 L 3.453125 -7.8125 L 4.8125 -7.8125 L 8.21875 0 L 6.8125 0 Z M 5.5625 -2.9375 L 4.09375 -6.40625 L 2.625 -2.9375 Z M 5.5625 -2.9375 "/></g></g></g><g fill="#545454" fill-opacity="1"><g transform="translate(148.366604, 263.353723)"><g><path d="M 3.59375 -7.859375 C 4.601562 -7.859375 5.515625 -7.59375 6.328125 -7.0625 L 5.78125 -5.90625 C 4.976562 -6.382812 4.210938 -6.625 3.484375 -6.625 C 3.097656 -6.625 2.789062 -6.550781 2.5625 -6.40625 C 2.332031 -6.269531 2.21875 -6.070312 2.21875 -5.8125 C 2.21875 -5.550781 2.320312 -5.328125 2.53125 -5.140625 C 2.738281 -4.960938 3 -4.832031 3.3125 -4.75 C 3.625 -4.664062 3.960938 -4.554688 4.328125 -4.421875 C 4.691406 -4.296875 5.03125 -4.160156 5.34375 -4.015625 C 5.65625 -3.867188 5.910156 -3.640625 6.109375 -3.328125 C 6.316406 -3.015625 6.421875 -2.640625 6.421875 -2.203125 C 6.421875 -1.523438 6.144531 -0.976562 5.59375 -0.5625 C 5.050781 -0.15625 4.347656 0.046875 3.484375 0.046875 C 2.890625 0.046875 2.3125 -0.0625 1.75 -0.28125 C 1.195312 -0.507812 0.710938 -0.8125 0.296875 -1.1875 L 0.859375 -2.328125 C 1.253906 -1.960938 1.6875 -1.679688 2.15625 -1.484375 C 2.625 -1.285156 3.070312 -1.1875 3.5 -1.1875 C 3.957031 -1.1875 4.316406 -1.269531 4.578125 -1.4375 C 4.835938 -1.613281 4.96875 -1.847656 4.96875 -2.140625 C 4.96875 -2.410156 4.863281 -2.632812 4.65625 -2.8125 C 4.445312 -3 4.1875 -3.132812 3.875 -3.21875 C 3.5625 -3.300781 3.222656 -3.40625 2.859375 -3.53125 C 2.492188 -3.65625 2.15625 -3.785156 1.84375 -3.921875 C 1.53125 -4.054688 1.269531 -4.273438 1.0625 -4.578125 C 0.851562 -4.890625 0.75 -5.257812 0.75 -5.6875 C 0.75 -6.351562 1.007812 -6.878906 1.53125 -7.265625 C 2.050781 -7.660156 2.738281 -7.859375 3.59375 -7.859375 Z M 3.59375 -7.859375 "/></g></g></g><g fill="#545454" fill-opacity="1"><g transform="translate(155.305763, 263.353723)"><g><path d="M 3.59375 -7.859375 C 4.601562 -7.859375 5.515625 -7.59375 6.328125 -7.0625 L 5.78125 -5.90625 C 4.976562 -6.382812 4.210938 -6.625 3.484375 -6.625 C 3.097656 -6.625 2.789062 -6.550781 2.5625 -6.40625 C 2.332031 -6.269531 2.21875 -6.070312 2.21875 -5.8125 C 2.21875 -5.550781 2.320312 -5.328125 2.53125 -5.140625 C 2.738281 -4.960938 3 -4.832031 3.3125 -4.75 C 3.625 -4.664062 3.960938 -4.554688 4.328125 -4.421875 C 4.691406 -4.296875 5.03125 -4.160156 5.34375 -4.015625 C 5.65625 -3.867188 5.910156 -3.640625 6.109375 -3.328125 C 6.316406 -3.015625 6.421875 -2.640625 6.421875 -2.203125 C 6.421875 -1.523438 6.144531 -0.976562 5.59375 -0.5625 C 5.050781 -0.15625 4.347656 0.046875 3.484375 0.046875 C 2.890625 0.046875 2.3125 -0.0625 1.75 -0.28125 C 1.195312 -0.507812 0.710938 -0.8125 0.296875 -1.1875 L 0.859375 -2.328125 C 1.253906 -1.960938 1.6875 -1.679688 2.15625 -1.484375 C 2.625 -1.285156 3.070312 -1.1875 3.5 -1.1875 C 3.957031 -1.1875 4.316406 -1.269531 4.578125 -1.4375 C 4.835938 -1.613281 4.96875 -1.847656 4.96875 -2.140625 C 4.96875 -2.410156 4.863281 -2.632812 4.65625 -2.8125 C 4.445312 -3 4.1875 -3.132812 3.875 -3.21875 C 3.5625 -3.300781 3.222656 -3.40625 2.859375 -3.53125 C 2.492188 -3.65625 2.15625 -3.785156 1.84375 -3.921875 C 1.53125 -4.054688 1.269531 -4.273438 1.0625 -4.578125 C 0.851562 -4.890625 0.75 -5.257812 0.75 -5.6875 C 0.75 -6.351562 1.007812 -6.878906 1.53125 -7.265625 C 2.050781 -7.660156 2.738281 -7.859375 3.59375 -7.859375 Z M 3.59375 -7.859375 "/></g></g></g><g fill="#545454" fill-opacity="1"><g transform="translate(162.244922, 263.353723)"><g><path d="M 2.34375 0 L 1.03125 0 L 1.03125 -7.8125 L 2.34375 -7.8125 Z M 2.34375 0 "/></g></g></g><g fill="#545454" fill-opacity="1"><g transform="translate(165.614096, 263.353723)"><g><path d="M 3.59375 -7.859375 C 4.601562 -7.859375 5.515625 -7.59375 6.328125 -7.0625 L 5.78125 -5.90625 C 4.976562 -6.382812 4.210938 -6.625 3.484375 -6.625 C 3.097656 -6.625 2.789062 -6.550781 2.5625 -6.40625 C 2.332031 -6.269531 2.21875 -6.070312 2.21875 -5.8125 C 2.21875 -5.550781 2.320312 -5.328125 2.53125 -5.140625 C 2.738281 -4.960938 3 -4.832031 3.3125 -4.75 C 3.625 -4.664062 3.960938 -4.554688 4.328125 -4.421875 C 4.691406 -4.296875 5.03125 -4.160156 5.34375 -4.015625 C 5.65625 -3.867188 5.910156 -3.640625 6.109375 -3.328125 C 6.316406 -3.015625 6.421875 -2.640625 6.421875 -2.203125 C 6.421875 -1.523438 6.144531 -0.976562 5.59375 -0.5625 C 5.050781 -0.15625 4.347656 0.046875 3.484375 0.046875 C 2.890625 0.046875 2.3125 -0.0625 1.75 -0.28125 C 1.195312 -0.507812 0.710938 -0.8125 0.296875 -1.1875 L 0.859375 -2.328125 C 1.253906 -1.960938 1.6875 -1.679688 2.15625 -1.484375 C 2.625 -1.285156 3.070312 -1.1875 3.5 -1.1875 C 3.957031 -1.1875 4.316406 -1.269531 4.578125 -1.4375 C 4.835938 -1.613281 4.96875 -1.847656 4.96875 -2.140625 C 4.96875 -2.410156 4.863281 -2.632812 4.65625 -2.8125 C 4.445312 -3 4.1875 -3.132812 3.875 -3.21875 C 3.5625 -3.300781 3.222656 -3.40625 2.859375 -3.53125 C 2.492188 -3.65625 2.15625 -3.785156 1.84375 -3.921875 C 1.53125 -4.054688 1.269531 -4.273438 1.0625 -4.578125 C 0.851562 -4.890625 0.75 -5.257812 0.75 -5.6875 C 0.75 -6.351562 1.007812 -6.878906 1.53125 -7.265625 C 2.050781 -7.660156 2.738281 -7.859375 3.59375 -7.859375 Z M 3.59375 -7.859375 "/></g></g></g><g fill="#545454" fill-opacity="1"><g transform="translate(172.553255, 263.353723)"><g><path d="M 6.359375 -6.625 L 3.875 -6.625 L 3.875 0 L 2.5625 0 L 2.5625 -6.625 L 0.09375 -6.625 L 0.09375 -7.8125 L 6.359375 -7.8125 Z M 6.359375 -6.625 "/></g></g></g><g fill="#545454" fill-opacity="1"><g transform="translate(179.012701, 263.353723)"><g><path d="M 6.0625 -1.765625 L 2.125 -1.765625 L 1.390625 0 L 0.015625 0 L 3.453125 -7.8125 L 4.8125 -7.8125 L 8.21875 0 L 6.8125 0 Z M 5.5625 -2.9375 L 4.09375 -6.40625 L 2.625 -2.9375 Z M 5.5625 -2.9375 "/></g></g></g><g fill="#545454" fill-opacity="1"><g transform="translate(187.245981, 263.353723)"><g><path d="M 7.796875 0 L 6.5 0 L 2.34375 -5.59375 L 2.34375 0 L 1.03125 0 L 1.03125 -7.8125 L 2.328125 -7.8125 L 6.5 -2.203125 L 6.5 -7.8125 L 7.796875 -7.8125 Z M 7.796875 0 "/></g></g></g><g fill="#545454" fill-opacity="1"><g transform="translate(196.081689, 263.353723)"><g><path d="M 4.484375 -7.84375 C 5.035156 -7.84375 5.570312 -7.734375 6.09375 -7.515625 C 6.625 -7.304688 7.078125 -7.015625 7.453125 -6.640625 L 6.6875 -5.671875 C 6.40625 -5.984375 6.066406 -6.226562 5.671875 -6.40625 C 5.285156 -6.582031 4.894531 -6.671875 4.5 -6.671875 C 3.71875 -6.671875 3.054688 -6.40625 2.515625 -5.875 C 1.984375 -5.34375 1.71875 -4.691406 1.71875 -3.921875 C 1.71875 -3.148438 1.984375 -2.5 2.515625 -1.96875 C 3.054688 -1.4375 3.71875 -1.171875 4.5 -1.171875 C 5.3125 -1.171875 6.039062 -1.476562 6.6875 -2.09375 L 7.46875 -1.234375 C 7.0625 -0.835938 6.585938 -0.519531 6.046875 -0.28125 C 5.515625 -0.0507812 4.976562 0.0625 4.4375 0.0625 C 3.289062 0.0625 2.328125 -0.316406 1.546875 -1.078125 C 0.765625 -1.847656 0.375 -2.796875 0.375 -3.921875 C 0.375 -5.023438 0.769531 -5.953125 1.5625 -6.703125 C 2.351562 -7.460938 3.328125 -7.84375 4.484375 -7.84375 Z M 4.484375 -7.84375 "/></g></g></g><g fill="#545454" fill-opacity="1"><g transform="translate(203.857559, 263.353723)"><g><path d="M 6.609375 -6.625 L 2.34375 -6.625 L 2.34375 -4.515625 L 6.15625 -4.515625 L 6.15625 -3.328125 L 2.34375 -3.328125 L 2.34375 -1.1875 L 6.734375 -1.1875 L 6.734375 0 L 1.03125 0 L 1.03125 -7.8125 L 6.609375 -7.8125 Z M 6.609375 -6.625 "/></g></g></g><g fill="#545454" fill-opacity="1"><g transform="translate(211.176033, 263.353723)"><g/></g></g><g fill="#545454" fill-opacity="1"><g transform="translate(214.054336, 263.353723)"><g><path d="M 1.03125 -7.8125 L 4.140625 -7.8125 C 5.117188 -7.8125 5.878906 -7.578125 6.421875 -7.109375 C 6.960938 -6.648438 7.234375 -5.992188 7.234375 -5.140625 C 7.234375 -4.253906 6.960938 -3.566406 6.421875 -3.078125 C 5.878906 -2.597656 5.117188 -2.359375 4.140625 -2.359375 L 2.34375 -2.359375 L 2.34375 0 L 1.03125 0 Z M 2.34375 -6.625 L 2.34375 -3.53125 L 4.078125 -3.53125 C 5.335938 -3.53125 5.96875 -4.054688 5.96875 -5.109375 C 5.96875 -6.117188 5.335938 -6.625 4.078125 -6.625 Z M 2.34375 -6.625 "/></g></g></g><g fill="#545454" fill-opacity="1"><g transform="translate(221.562461, 263.353723)"><g><path d="M 5.984375 0 L 4.546875 -2.359375 C 4.472656 -2.359375 4.351562 -2.359375 4.1875 -2.359375 L 2.34375 -2.359375 L 2.34375 0 L 1.03125 0 L 1.03125 -7.8125 L 4.1875 -7.8125 C 5.1875 -7.8125 5.960938 -7.578125 6.515625 -7.109375 C 7.066406 -6.648438 7.34375 -5.992188 7.34375 -5.140625 C 7.34375 -4.515625 7.203125 -3.984375 6.921875 -3.546875 C 6.640625 -3.117188 6.238281 -2.804688 5.71875 -2.609375 L 7.46875 0 Z M 2.34375 -3.53125 L 4.1875 -3.53125 C 5.457031 -3.53125 6.09375 -4.054688 6.09375 -5.109375 C 6.09375 -6.117188 5.457031 -6.625 4.1875 -6.625 L 2.34375 -6.625 Z M 2.34375 -3.53125 "/></g></g></g><g fill="#545454" fill-opacity="1"><g transform="translate(229.628393, 263.353723)"><g><path d="M 1.5625 -6.703125 C 2.363281 -7.460938 3.347656 -7.84375 4.515625 -7.84375 C 5.679688 -7.84375 6.660156 -7.460938 7.453125 -6.703125 C 8.253906 -5.953125 8.65625 -5.019531 8.65625 -3.90625 C 8.65625 -2.789062 8.253906 -1.847656 7.453125 -1.078125 C 6.660156 -0.316406 5.679688 0.0625 4.515625 0.0625 C 3.347656 0.0625 2.363281 -0.316406 1.5625 -1.078125 C 0.769531 -1.847656 0.375 -2.789062 0.375 -3.90625 C 0.375 -5.019531 0.769531 -5.953125 1.5625 -6.703125 Z M 4.53125 -6.65625 C 3.757812 -6.65625 3.097656 -6.390625 2.546875 -5.859375 C 1.992188 -5.328125 1.71875 -4.675781 1.71875 -3.90625 C 1.71875 -3.132812 1.992188 -2.476562 2.546875 -1.9375 C 3.097656 -1.394531 3.753906 -1.125 4.515625 -1.125 C 5.285156 -1.125 5.941406 -1.394531 6.484375 -1.9375 C 7.035156 -2.476562 7.3125 -3.132812 7.3125 -3.90625 C 7.3125 -4.675781 7.035156 -5.328125 6.484375 -5.859375 C 5.941406 -6.390625 5.289062 -6.65625 4.53125 -6.65625 Z M 4.53125 -6.65625 "/></g></g></g><g fill="#545454" fill-opacity="1"><g transform="translate(238.664911, 263.353723)"><g><path d="M 6.375 -3.84375 L 7.515625 -3.84375 L 7.515625 -0.953125 C 7.117188 -0.648438 6.644531 -0.40625 6.09375 -0.21875 C 5.550781 -0.03125 5.015625 0.0625 4.484375 0.0625 C 3.328125 0.0625 2.351562 -0.316406 1.5625 -1.078125 C 0.769531 -1.847656 0.375 -2.789062 0.375 -3.90625 C 0.375 -5.019531 0.773438 -5.953125 1.578125 -6.703125 C 2.390625 -7.460938 3.382812 -7.84375 4.5625 -7.84375 C 5.113281 -7.84375 5.65625 -7.742188 6.1875 -7.546875 C 6.71875 -7.347656 7.175781 -7.082031 7.5625 -6.75 L 6.8125 -5.78125 C 6.175781 -6.375 5.425781 -6.671875 4.5625 -6.671875 C 3.769531 -6.671875 3.097656 -6.398438 2.546875 -5.859375 C 1.992188 -5.328125 1.71875 -4.675781 1.71875 -3.90625 C 1.71875 -3.125 1.992188 -2.460938 2.546875 -1.921875 C 3.097656 -1.390625 3.773438 -1.125 4.578125 -1.125 C 5.179688 -1.125 5.78125 -1.300781 6.375 -1.65625 Z M 6.375 -3.84375 "/></g></g></g><g fill="#545454" fill-opacity="1"><g transform="translate(247.020906, 263.353723)"><g><path d="M 5.984375 0 L 4.546875 -2.359375 C 4.472656 -2.359375 4.351562 -2.359375 4.1875 -2.359375 L 2.34375 -2.359375 L 2.34375 0 L 1.03125 0 L 1.03125 -7.8125 L 4.1875 -7.8125 C 5.1875 -7.8125 5.960938 -7.578125 6.515625 -7.109375 C 7.066406 -6.648438 7.34375 -5.992188 7.34375 -5.140625 C 7.34375 -4.515625 7.203125 -3.984375 6.921875 -3.546875 C 6.640625 -3.117188 6.238281 -2.804688 5.71875 -2.609375 L 7.46875 0 Z M 2.34375 -3.53125 L 4.1875 -3.53125 C 5.457031 -3.53125 6.09375 -4.054688 6.09375 -5.109375 C 6.09375 -6.117188 5.457031 -6.625 4.1875 -6.625 L 2.34375 -6.625 Z M 2.34375 -3.53125 "/></g></g></g><g fill="#545454" fill-opacity="1"><g transform="translate(255.086838, 263.353723)"><g><path d="M 6.0625 -1.765625 L 2.125 -1.765625 L 1.390625 0 L 0.015625 0 L 3.453125 -7.8125 L 4.8125 -7.8125 L 8.21875 0 L 6.8125 0 Z M 5.5625 -2.9375 L 4.09375 -6.40625 L 2.625 -2.9375 Z M 5.5625 -2.9375 "/></g></g></g><g fill="#545454" fill-opacity="1"><g transform="translate(263.320118, 263.353723)"><g><path d="M 9.28125 0 L 8.0625 0 L 8.0625 -5.828125 L 5.59375 -0.8125 L 4.734375 -0.8125 L 2.265625 -5.828125 L 2.265625 0 L 1.03125 0 L 1.03125 -7.8125 L 2.59375 -7.8125 L 5.171875 -2.625 L 7.734375 -7.8125 L 9.28125 -7.8125 Z M 9.28125 0 "/></g></g></g></svg>